# xmcd CD database file
#
# Track frame offsets:
#	187
#	19400
#	41562
#
# Disc length: 806 seconds
#
# Revision: 0
# Processed by: cddbd v1.5PL3 Copyright (c) Steve Scherf et al.
# Submitted via: CDex 1.50beta9
#
DISCID=1f032403
DTITLE=葛城哲哉 - SEARCHIN'
DYEAR=1994
DGENRE=Japanese Pop
TTITLE0=SEARCHIN'
TTITLE1=STRANGER
TTITLE2=SEARCHIN' (Guiter Oriented Version)
EXTD=YEAR: 1994
EXTT0=
EXTT1=
EXTT2=
PLAYORDER=
